<svg width="151" height="150" viewBox="0 0 151 150" fill="none" xmlns="http://www.w3.org/2000/svg">
<g clip-path="url(#clip0_35_34)">
<path d="M150.826 67.1502H105.106L144.7 44.3L136.848 30.7L97.2485 53.55L120.104 13.975L106.501 6.12498L83.6405 45.69V0H67.9263V45.695L45.066 6.12498L31.4577 13.975L54.3132 53.54L14.7237 30.7L6.86679 44.3L46.4613 67.1502H0.740295V82.8549H46.4563L6.86679 105.705L14.7187 119.305L54.3182 96.455L31.4577 136.03L45.061 143.88L67.9263 104.31V150H83.6405V103.33L106.921 143.63L119.679 136.27L96.3933 95.9603L136.838 119.3L144.695 105.7L105.106 82.8498H150.821V67.1502H150.826ZM75.7834 96.3498C72.9782 96.3504 70.2004 95.7985 67.6089 94.7256C65.0175 93.6526 62.6623 92.0799 60.6787 90.0968C58.6951 88.1144 57.1213 85.7603 56.0476 83.1694C54.9739 80.5785 54.4212 77.8019 54.4207 74.9978C54.4202 72.1931 54.9723 69.4159 56.0456 66.825C57.119 64.2341 58.6918 61.8795 60.6754 59.8965C62.6584 57.9134 65.0125 56.3401 67.6045 55.2665C70.1959 54.193 72.9731 53.6405 75.7783 53.64C81.4431 53.6395 86.8767 55.8885 90.883 59.8931C94.8894 63.8978 97.1405 69.3291 97.141 74.9927C97.1416 80.6558 94.8922 86.0882 90.8864 90.0935C86.8811 94.0993 81.4481 96.3493 75.7834 96.3498Z" fill="#5753F3"/>
</g>
<defs>
<clipPath id="clip0_35_34">
<rect width="150" height="150" fill="white" transform="translate(0.740295)"/>
</clipPath>
</defs>
</svg>
