<svg width="151" height="150" viewBox="0 0 151 150" fill="none" xmlns="http://www.w3.org/2000/svg">
<path d="M106.871 71.3379C107.779 71.2207 108.687 71.2207 109.595 71.3379C110.093 70.2246 110.181 68.2617 109.742 66.1816C109.097 63.0469 108.189 61.1426 106.373 61.4355C104.556 61.7285 104.468 64.0137 105.142 67.1484C105.464 68.8769 106.138 70.4004 106.871 71.3379ZM91.1382 73.8281C92.4566 74.4141 93.2476 74.7949 93.5699 74.4434C94.1265 73.8867 92.5445 71.6895 90.0249 70.6055C87.0367 69.375 83.6382 69.7852 81.0308 71.6894C80.1519 72.334 79.3316 73.2129 79.4488 73.7695C79.7124 74.8535 82.3785 72.9785 86.0992 72.7441C88.1206 72.5977 89.8199 73.2422 91.1382 73.8281ZM88.5015 75.3223C85.8355 75.7324 84.107 77.2266 84.5464 78.2812C84.8101 78.3691 84.898 78.5156 86.0699 78.0469C87.8277 77.373 89.7027 77.1973 91.5777 77.4609C92.4273 77.5488 92.8374 77.6074 93.0425 77.3145C93.4234 76.6992 91.3433 75 88.5015 75.3223ZM104.38 80.3613C105.377 78.3398 101.187 76.2598 100.191 78.3105C99.1949 80.332 103.414 82.3828 104.38 80.3613ZM108.98 74.3555C106.724 74.3262 106.636 78.9844 108.892 79.043C111.177 79.043 111.265 74.3848 108.98 74.3555ZM44.7613 97.5C44.3804 97.5879 43.0035 97.9395 42.271 96.7969C40.7476 94.4531 45.523 90.8203 43.1499 86.2793C40.4839 81.1523 34.9761 82.2949 32.8667 84.6387C30.3179 87.4512 30.3179 91.5527 31.4019 91.6992C32.6617 91.875 32.6031 89.7949 33.5699 88.2715C34.7124 86.5137 37.0269 86.0156 38.7847 87.1582C38.7847 87.1582 38.814 87.1582 38.814 87.1875C42.2124 89.4141 39.2242 92.4023 39.4878 95.5957C39.898 100.488 44.9078 100.4 45.816 98.2324C45.9331 98.0273 45.9039 97.7344 45.7574 97.5586C45.7574 97.8809 45.9331 97.2363 44.7613 97.5ZM132.769 92.4902C131.773 89.0332 132.007 89.7949 130.777 86.4551C131.509 85.3711 135.259 79.3945 129.869 73.7695C126.822 70.5762 119.908 68.9062 117.798 68.3203C117.359 64.9805 119.175 51.0938 111.47 43.9453C117.564 37.6172 121.373 30.6445 121.373 24.668C121.343 13.1836 107.222 9.69727 89.8199 16.9043L86.1285 18.457C86.0992 18.4277 79.4488 11.9238 79.3609 11.8359C59.5562 -5.44922 -2.49459 63.4863 17.3394 80.2441L21.6753 83.9062C20.5035 87.041 20.0933 90.4102 20.4742 93.75C21.4703 103.564 31.0503 111.504 40.3081 111.475C57.271 150.557 118.97 150.615 134.937 112.354C135.435 111.035 137.603 105.117 137.603 99.9023C137.603 94.6875 134.644 92.4902 132.769 92.4902ZM39.9566 106.641C33.2476 106.465 26.0113 100.43 25.3081 93.2812C23.4917 75.293 47.105 71.1914 49.9761 89.6484C51.3238 98.3496 48.5992 106.816 39.9566 106.641ZM34.5367 73.0957C30.0835 73.9746 26.1578 76.4941 23.7554 79.9805C22.3199 78.7793 19.6538 76.4648 19.1851 75.5859C15.3765 68.291 23.3746 54.1406 28.9703 46.1719C42.7984 26.4258 64.4488 11.4844 74.4976 14.1797C76.1382 14.6484 81.5288 20.8887 81.5288 20.8887C81.5288 20.8887 71.5093 26.4551 62.2222 34.2188C49.6538 43.8867 40.191 57.8906 34.5367 73.0957ZM104.673 102.803C104.673 102.803 94.1851 104.355 84.2535 100.723C86.0699 94.8047 92.1929 102.51 112.554 96.6797C117.037 95.3906 122.925 92.8711 127.525 89.2383C128.521 91.5234 129.224 93.9258 129.605 96.3574C130.689 96.1523 133.794 96.2109 132.974 101.66C132.007 107.49 129.517 112.236 125.357 116.602C122.75 119.414 119.644 121.758 116.216 123.457C114.312 124.453 112.291 125.303 110.24 125.977C94.5367 131.104 78.4527 125.479 73.2378 113.35C72.8277 112.412 72.4761 111.475 72.1831 110.479C69.9859 102.48 71.8609 92.9004 77.7203 86.8652C78.0718 86.4844 78.4527 86.0156 78.4527 85.459C78.3941 84.9609 78.2183 84.4922 77.896 84.1113C75.8453 81.1231 68.7261 76.0547 70.1617 66.2402C71.1871 59.1797 77.3394 54.2285 83.1109 54.5215L84.5757 54.6094C87.066 54.7559 89.2339 55.0781 91.2847 55.166C94.7124 55.3125 97.8179 54.8144 101.451 51.7676C102.681 50.7422 103.677 49.834 105.347 49.5703C106.724 49.2187 108.16 49.4824 109.332 50.2148C112.261 52.1777 112.671 56.8945 112.818 60.3516C112.906 62.3145 113.14 67.1191 113.228 68.4668C113.404 71.6016 114.224 72.041 115.894 72.5684C116.832 72.8906 117.71 73.0957 118.97 73.4766C122.837 74.5605 125.123 75.6738 126.617 77.0801C127.378 77.8125 127.847 78.7793 128.023 79.8047C128.492 83.1445 125.445 87.2754 117.359 90.9961C103.648 97.3535 89.8492 95.2441 87.857 95.0098C81.939 94.2188 78.5699 101.865 82.1148 107.08C88.7652 116.895 118.062 112.939 126.558 100.811C126.763 100.518 126.587 100.342 126.353 100.518C114.078 108.896 97.8472 111.738 88.6187 108.164C87.2124 107.607 84.2828 106.26 83.9312 103.271C96.7339 107.227 104.791 103.477 104.791 103.477C104.791 103.477 105.435 102.715 104.673 102.803ZM60.0835 46.084C65.0054 40.4004 71.0406 35.4492 76.4898 32.6953C76.5777 32.6367 76.7242 32.666 76.7828 32.7832C76.8121 32.8418 76.8121 32.9297 76.7828 32.9883C76.3433 33.7793 75.523 35.4492 75.2593 36.709C75.23 36.8262 75.3179 36.9434 75.4351 36.9727C75.4937 37.002 75.5523 36.9727 75.6109 36.9434C78.98 34.6582 84.8687 32.168 89.9956 31.875C90.1128 31.875 90.23 31.9629 90.23 32.0801C90.23 32.168 90.2007 32.2266 90.1421 32.2852C89.2925 32.9297 88.5308 33.6914 87.8863 34.5703C87.8277 34.6582 87.8277 34.8047 87.9449 34.8633C87.9742 34.8926 88.0328 34.8926 88.0621 34.8926C91.6656 34.9219 96.7632 36.1816 100.103 38.0566C100.337 38.1738 100.162 38.6133 99.9273 38.5547C79.5074 33.8672 63.7749 44.0039 60.4351 46.4355C60.3179 46.4941 60.2007 46.4648 60.1128 46.377C60.0249 46.2598 60.0249 46.1426 60.0835 46.084Z" fill="black"/>
</svg>
