<svg width="127" height="80" viewBox="0 0 127 80" fill="none" xmlns="http://www.w3.org/2000/svg">
<g clip-path="url(#clip0_35_188)">
<path d="M35.8902 71.0697L38.4209 54.9955L32.7838 54.8649H5.86603L24.5725 -63.7464C24.6305 -64.1045 24.8193 -64.4383 25.0951 -64.6754C25.3709 -64.9125 25.7241 -65.0432 26.0918 -65.0432H71.4791C86.5468 -65.0432 96.9452 -61.9077 102.374 -55.719C104.919 -52.8158 106.54 -49.7819 107.324 -46.4432C108.147 -42.9399 108.161 -38.7545 107.358 -33.6496L107.3 -33.277V-30.0061L109.845 -28.5641C111.989 -27.427 113.692 -26.1254 114.998 -24.6351C117.176 -22.1528 118.584 -18.9981 119.179 -15.2577C119.794 -11.411 119.59 -6.83354 118.584 -1.65128C117.423 4.31001 115.545 9.50195 113.01 13.7503C110.677 17.6648 107.706 20.9116 104.179 23.4277C100.811 25.8181 96.8097 27.6326 92.2855 28.7939C87.9017 29.9358 82.9033 30.5116 77.421 30.5116H73.8888C71.363 30.5116 68.9097 31.4213 66.9839 33.0519C65.0533 34.7165 63.7759 36.9907 63.3839 39.4778L63.1178 40.9245L58.6468 69.2552L58.4436 70.2955C58.3904 70.6245 58.2984 70.7891 58.1629 70.9003C58.042 71.002 57.8678 71.0697 57.6984 71.0697H35.8902Z" fill="#253B80"/>
<path d="M112.255 -32.9017C112.119 -32.0355 111.965 -31.15 111.79 -30.2404C105.805 0.490326 85.3275 11.1064 59.1743 11.1064H45.8582C42.6598 11.1064 39.9647 13.429 39.4663 16.5839L32.6485 59.8226L30.7179 72.079C30.3937 74.15 31.9905 76.0177 34.0808 76.0177H57.6984C60.4952 76.0177 62.871 73.9855 63.3113 71.2274L63.5436 70.0274L67.9904 41.8081L68.2759 40.2597C68.7113 37.4919 71.092 35.4597 73.8888 35.4597H77.421C100.303 35.4597 118.216 26.1694 123.452 -0.714512C125.639 -11.9452 124.507 -21.3226 118.719 -27.9178C116.968 -29.9065 114.795 -31.5565 112.255 -32.9017Z" fill="#179BD7"/>
<path d="M105.994 -35.3982C105.079 -35.6644 104.136 -35.9063 103.168 -36.124C102.195 -36.337 101.198 -36.5257 100.173 -36.6902C96.5823 -37.2708 92.6484 -37.5466 88.4339 -37.5466H52.8597C51.9839 -37.5466 51.1517 -37.3482 50.4065 -36.9902C48.7662 -36.2015 47.5469 -34.6482 47.2517 -32.7466L39.6839 15.1855L39.4662 16.5839C39.9646 13.429 42.6597 11.1064 45.8581 11.1064H59.1743C85.3275 11.1064 105.805 0.485481 111.79 -30.2402C111.969 -31.1499 112.119 -32.0353 112.255 -32.9015C110.74 -33.7047 109.1 -34.3918 107.334 -34.9773C106.898 -35.1224 106.448 -35.2628 105.994 -35.3982Z" fill="#222D65"/>
<path d="M47.2516 -32.7468C47.5468 -34.6484 48.7661 -36.2016 50.4065 -36.9855C51.1565 -37.3435 51.9839 -37.5419 52.8597 -37.5419H88.4339C92.6484 -37.5419 96.5823 -37.2661 100.173 -36.6855C101.198 -36.521 102.195 -36.3323 103.168 -36.1194C104.136 -35.9016 105.079 -35.6597 105.994 -35.3935C106.448 -35.2581 106.898 -35.1177 107.339 -34.9774C109.105 -34.3919 110.745 -33.7 112.26 -32.9016C114.04 -44.2581 112.245 -51.9903 106.105 -58.9919C99.3355 -66.7 87.1178 -70 71.4839 -70H26.0968C22.9032 -70 20.179 -67.6774 19.6855 -64.5177L0.780633 55.3129C0.408052 57.6839 2.23709 59.8226 4.62741 59.8226H32.6484L39.6839 15.1855L47.2516 -32.7468Z" fill="#253B80"/>
</g>
<defs>
<clipPath id="clip0_35_188">
<rect width="125.806" height="150" fill="white" transform="translate(0.7323 -70)"/>
</clipPath>
</defs>
</svg>
