<svg width="151" height="80" viewBox="0 0 151 80" fill="none" xmlns="http://www.w3.org/2000/svg">
<g clip-path="url(#clip0_35_185)">
<path d="M32.8583 24.4882C32.8583 33.1102 25.8898 40.0787 17.2677 40.0787C8.64569 40.0787 1.67719 33.1102 1.67719 24.4882C1.67719 15.8661 8.64569 8.89764 17.2677 8.89764H32.8583V24.4882ZM40.6536 24.4882C40.6536 15.8661 47.6221 8.89764 56.2441 8.89764C64.8662 8.89764 71.8347 15.8661 71.8347 24.4882V63.4646C71.8347 72.0866 64.8662 79.0551 56.2441 79.0551C47.6221 79.0551 40.6536 72.0866 40.6536 63.4646V24.4882Z" fill="#E01E5A"/>
<path d="M56.2441 -38.1102C47.6221 -38.1102 40.6536 -45.0787 40.6536 -53.7008C40.6536 -62.3228 47.6221 -69.2913 56.2441 -69.2913C64.8662 -69.2913 71.8347 -62.3228 71.8347 -53.7008V-38.1102H56.2441ZM56.2441 -30.1968C64.8662 -30.1968 71.8347 -23.2283 71.8347 -14.6063C71.8347 -5.98425 64.8662 0.984253 56.2441 0.984253H17.1496C8.52757 0.984253 1.55907 -5.98425 1.55907 -14.6063C1.55907 -23.2283 8.52757 -30.1968 17.1496 -30.1968H56.2441Z" fill="#36C5F0"/>
<path d="M118.724 -14.6063C118.724 -23.2283 125.693 -30.1968 134.315 -30.1968C142.937 -30.1968 149.906 -23.2283 149.906 -14.6063C149.906 -5.98425 142.937 0.984253 134.315 0.984253H118.724V-14.6063ZM110.929 -14.6063C110.929 -5.98425 103.961 0.984253 95.3386 0.984253C86.7165 0.984253 79.748 -5.98425 79.748 -14.6063V-53.7008C79.748 -62.3228 86.7165 -69.2913 95.3386 -69.2913C103.961 -69.2913 110.929 -62.3228 110.929 -53.7008V-14.6063Z" fill="#2EB67D"/>
<path d="M95.3386 47.874C103.961 47.874 110.929 54.8425 110.929 63.4646C110.929 72.0866 103.961 79.0551 95.3386 79.0551C86.7165 79.0551 79.748 72.0866 79.748 63.4646V47.874H95.3386ZM95.3386 40.0787C86.7165 40.0787 79.748 33.1102 79.748 24.4882C79.748 15.8661 86.7165 8.89764 95.3386 8.89764H134.433C143.055 8.89764 150.024 15.8661 150.024 24.4882C150.024 33.1102 143.055 40.0787 134.433 40.0787H95.3386Z" fill="#ECB22E"/>
</g>
<defs>
<clipPath id="clip0_35_185">
<rect width="150" height="150" fill="white" transform="translate(0.7323 -70)"/>
</clipPath>
</defs>
</svg>
