<svg width="94" height="80" viewBox="0 0 94 80" fill="none" xmlns="http://www.w3.org/2000/svg">
<g clip-path="url(#clip0_35_184)">
<path d="M0.543304 -69.8426H70.7205C83.811 -69.8426 94.1063 -59.5473 93.6142 -46.9094V29.8228C93.6142 42.4409 83.3386 52.7362 70.7008 52.7362H55.2677L63.6929 79.8622L23.0039 52.7362H0.562988C-12.5275 52.7362 -22.8229 42.4409 -22.8229 29.3504V-46.8898C-22.8425 -59.5473 -12.5472 -69.8426 0.543304 -69.8426ZM27.8071 14.3701C25.4252 13.0512 23.5157 11.1417 22.0787 8.62205C20.6417 6.10236 19.9331 3.07087 19.9331 -0.452759V-41.3386C19.9331 -41.9685 19.7953 -42.4606 19.5 -42.7756C19.2244 -43.1102 18.752 -43.2677 18.0827 -43.2677H7.62992C7.3937 -43.2677 7.15748 -43.2283 6.94094 -43.1299C6.72441 -43.0315 6.52756 -42.8937 6.38976 -42.6969C6.05511 -42.3228 5.87795 -41.8307 5.89763 -41.3189V-0.610237C5.89763 5.90552 7.23622 11.3583 9.91338 15.7874C12.5905 20.1969 16.1732 23.4843 20.7008 25.6496C25.2087 27.815 30.248 28.878 35.7992 28.878C41.3701 28.878 46.4094 27.815 50.9173 25.7087C55.4252 23.6024 59.0079 20.3543 61.685 15.9449C64.3622 11.5354 65.7008 6.063 65.7008 -0.472435V-41.2992C65.7008 -41.5551 65.6614 -41.811 65.563 -42.0669C65.4646 -42.3032 65.3268 -42.5394 65.1496 -42.7165C64.7756 -43.0905 64.2835 -43.2874 63.6535 -43.2874H53.6929C53.1024 -43.2874 52.6102 -43.1102 52.2559 -42.7362C51.8819 -42.3622 51.7047 -41.8898 51.7047 -41.2992V-0.452759C51.7047 2.83465 50.9961 5.76772 49.5787 8.30708C48.1614 10.8661 46.252 12.8346 43.8307 14.2323C41.4094 15.6299 38.7323 16.3189 35.8189 16.3189C32.8464 16.3386 30.189 15.689 27.8071 14.3701Z" fill="#2B52FD"/>
</g>
<defs>
<clipPath id="clip0_35_184">
<rect width="116.732" height="150" fill="white" transform="translate(-23 -70)"/>
</clipPath>
</defs>
</svg>
