<svg width="157" height="150" viewBox="0 0 157 150" fill="none" xmlns="http://www.w3.org/2000/svg">
<g clip-path="url(#clip0_35_29)">
<path d="M153.757 59.9704L153.548 59.4141L132.467 4.48032C132.04 3.40168 131.28 2.48667 130.299 1.86774C129.566 1.39923 128.734 1.1087 127.869 1.01942C127.003 0.930141 126.129 1.0446 125.316 1.35363C124.504 1.66267 123.774 2.15767 123.187 2.79898C122.6 3.44027 122.172 4.21003 121.936 5.04655L107.706 48.5664H50.0798L35.8497 5.04655C35.6124 4.21128 35.183 3.44298 34.5957 2.8029C34.0084 2.16283 33.2795 1.6687 32.467 1.35992C31.6547 1.05114 30.7814 0.936253 29.9167 1.02442C29.052 1.11259 28.2199 1.40137 27.4867 1.86774C26.505 2.48667 25.7456 3.40168 25.3189 4.48032L4.2474 59.424L4.02863 59.9704C0.994943 67.8907 0.621203 76.5815 2.96376 84.7325C5.3063 92.8835 10.2381 100.053 17.0157 105.159L17.0952 105.219L17.2741 105.358L49.3439 129.368L65.2544 141.377L74.9201 148.679C76.0542 149.535 77.4368 149.998 78.858 149.998C80.2793 149.998 81.6618 149.535 82.7959 148.679L92.4615 141.377L108.372 129.368L140.671 105.219L140.76 105.149C147.537 100.045 152.469 92.8777 154.814 84.7287C157.158 76.5798 156.787 67.8904 153.757 59.9704Z" fill="#E24329"/>
<path d="M153.757 59.9703L153.548 59.414C143.277 61.5195 133.598 65.8684 125.208 72.1491L78.9177 107.116L108.392 129.368L140.691 105.219L140.78 105.149C147.554 100.042 152.482 92.8738 154.823 84.7251C157.163 76.5762 156.789 67.8882 153.757 59.9703Z" fill="#FC6D26"/>
<path d="M49.344 129.368L65.2545 141.378L74.9202 148.679C76.0543 149.535 77.4368 149.998 78.8581 149.998C80.2794 149.998 81.6618 149.535 82.7959 148.679L92.4616 141.378L108.372 129.368L78.8978 107.116L49.344 129.368Z" fill="#FCA326"/>
<path d="M32.5781 72.1493C24.1899 65.8718 14.515 61.5262 4.2474 59.4241L4.02863 59.9705C0.994943 67.8908 0.621203 76.5816 2.96376 84.7326C5.3063 92.8836 10.2381 100.053 17.0157 105.159L17.0952 105.219L17.2741 105.358L49.3439 129.368L78.8382 107.116L32.5781 72.1493Z" fill="#FC6D26"/>
</g>
<defs>
<clipPath id="clip0_35_29">
<rect width="156.122" height="150" fill="white" transform="translate(0.617859)"/>
</clipPath>
</defs>
</svg>
