<svg width="160" height="80" viewBox="0 0 160 80" fill="none" xmlns="http://www.w3.org/2000/svg">
<path d="M12.6297 -65.4545L71.8114 -20.9091L61.2205 -47.2727L12.6297 -65.4545ZM128.857 36.9546L112.948 61.2273L146.993 70.5909L156.721 37.5L128.857 36.9546ZM6.31152 37.5L15.9933 70.5909L49.9478 61.2273L34.1297 36.9546L6.31152 37.5Z" fill="#E27625" stroke="#E27625" stroke-width="0.25" stroke-linecap="round" stroke-linejoin="round"/>
<path d="M48.1292 -4.04591L38.6746 10.2268L72.311 11.7723L71.2201 -24.455L48.1292 -4.00045V-4.04591ZM114.856 -4.00045L91.4019 -24.9095L90.6292 11.7723L124.266 10.2268L114.856 -4.00045ZM49.9473 61.2268L70.3564 51.4086L52.811 37.7723L49.9473 61.2268ZM92.6746 51.3632L112.947 61.2268L110.22 37.7268L92.6746 51.3632Z" fill="#E27625" stroke="#E27625" stroke-width="0.25" stroke-linecap="round" stroke-linejoin="round"/>
<path d="M112.948 61.2273L92.6755 51.4091L94.3119 64.5909L94.1301 70.1818L112.948 61.2273ZM49.9482 61.2273L68.8573 70.1818L68.721 64.5909L70.3573 51.4091L49.9482 61.2273Z" fill="#D5BFB2" stroke="#D5BFB2" stroke-width="0.25" stroke-linecap="round" stroke-linejoin="round"/>
<path d="M69.1746 29L52.3564 24.0909L64.2655 18.6364L69.2201 29H69.1746ZM93.7655 29L98.7655 18.5909L110.72 24.0455L93.7655 29.0455V29Z" fill="#233447" stroke="#233447" stroke-width="0.25" stroke-linecap="round" stroke-linejoin="round"/>
<path d="M49.9473 61.2268L52.9019 36.9541L34.1291 37.4996L49.9473 61.2268ZM110.084 36.9541L112.947 61.2268L128.856 37.4996L110.084 36.9541ZM124.311 10.2268L90.6746 11.7723L93.7655 29.045L98.7655 18.5905L110.72 24.045L124.311 10.2268ZM52.3564 24.0905L64.2655 18.6359L69.22 28.9995L72.3564 11.7268L38.72 10.2268L52.3564 24.0905Z" fill="#CC6228" stroke="#CC6228" stroke-width="0.25" stroke-linecap="round" stroke-linejoin="round"/>
<path d="M38.7201 10.2268L52.811 37.7268L52.3565 24.0905L38.7201 10.2268ZM110.72 24.0905L110.175 37.7268L124.266 10.2268L110.72 24.0905ZM72.3565 11.7723L69.1746 29.045L73.1746 49.4086L74.0837 22.545L72.3565 11.7723ZM90.6292 11.7723L88.9928 22.4995L89.811 49.4086L93.7655 28.9995L90.6292 11.7268V11.7723Z" fill="#E27525" stroke="#E27525" stroke-width="0.25" stroke-linecap="round" stroke-linejoin="round"/>
<path d="M93.7655 29L89.811 49.4091L92.6746 51.4086L110.175 37.7723L110.72 24.0909L93.7655 29ZM52.3564 24.0909L52.811 37.7273L70.3564 51.3636L73.1746 49.4091L69.2201 29L52.311 24.0909H52.3564Z" fill="#F5841F" stroke="#F5841F" stroke-width="0.25" stroke-linecap="round" stroke-linejoin="round"/>
<path d="M94.1755 70.1823L94.3119 64.5914L92.7664 63.3186H70.221L68.721 64.5914L68.8573 70.1823L49.9482 61.2277L56.5846 66.6823L69.9937 75.9096H92.9482L106.403 66.6368L112.948 61.2277L94.1301 70.1823H94.1755Z" fill="#C0AC9D" stroke="#C0AC9D" stroke-width="0.25" stroke-linecap="round" stroke-linejoin="round"/>
<path d="M92.6751 51.3636L89.8114 49.4091H73.1751L70.3569 51.4091L68.7205 64.5909L70.2205 63.3182H92.766L94.3114 64.5909L92.6751 51.4091V51.3636Z" fill="#161616" stroke="#161616" stroke-width="0.25" stroke-linecap="round" stroke-linejoin="round"/>
<path d="M152.902 -18.4091L157.902 -42.7273L150.357 -65.4545L92.6296 -22.7273L114.857 -4.04545L146.221 5.09091L153.13 -2.95454L150.13 -5.13636L154.902 -9.5L151.266 -12.3182L156.039 -15.9545L152.857 -18.4091H152.902ZM5.08417 -42.7727L10.1751 -18.4091L6.90235 -16L11.766 -12.3636L8.12962 -9.5L12.8569 -5.13636L9.85689 -2.95454L16.766 5.09091L48.1296 -4L70.3569 -22.7727L12.6296 -65.4545L5.08417 -42.7727Z" fill="#763E1A" stroke="#763E1A" stroke-width="0.25" stroke-linecap="round" stroke-linejoin="round"/>
<path d="M146.221 5.09092L114.857 -3.99999L124.311 10.2273L110.221 37.7273L128.857 37.5H156.721L146.221 5.09092ZM48.1296 -4.04545L16.7661 5.09092L6.31152 37.5H34.1752L52.8114 37.7273L38.7206 10.2273L48.1751 -4.04545H48.1296ZM90.6296 11.7727L92.6751 -22.7727L101.766 -47.3182H61.2205L70.3114 -22.7727L72.3569 11.7727L73.1296 22.5909V49.4091H89.8114L89.9024 22.5909L90.6296 11.7727Z" fill="#F5841F" stroke="#F5841F" stroke-width="0.25" stroke-linecap="round" stroke-linejoin="round"/>
</svg>
