<svg width="120" height="150" viewBox="0 0 120 150" fill="none" xmlns="http://www.w3.org/2000/svg">
<g clip-path="url(#clip0_35_55)">
<path d="M99.3541 24.9306C93.0258 24.9306 88.5109 27.6869 84.3463 33.6744L72.34 50.9056V1.71814H43.7002V50.9056L31.694 33.6744C27.5356 27.6869 23.0207 24.9306 16.6862 24.9306C7.13119 24.9306 0.771633 31.9806 0.740367 40.6681C0.715354 48.1056 4.22343 52.9556 11.621 57.7181L58.0202 87.5931L104.419 57.7181C111.817 52.9556 115.325 48.1056 115.3 40.6681C115.275 31.9806 108.909 24.9306 99.3541 24.9306Z" fill="#0AAD0A"/>
<path d="M58.02 94.7513C85.597 94.7513 108.202 115.326 108.14 144.851H7.90013C7.84385 115.339 30.4431 94.7513 58.02 94.7513Z" fill="#FF7009"/>
</g>
<defs>
<clipPath id="clip0_35_55">
<rect width="118.812" height="150" fill="white" transform="translate(0.740234)"/>
</clipPath>
</defs>
</svg>
