<svg width="151" height="80" viewBox="0 0 151 80" fill="none" xmlns="http://www.w3.org/2000/svg">
<g clip-path="url(#clip0_35_186)">
<path d="M75.7323 80C117.154 80 150.732 46.4214 150.732 5C150.732 -36.4214 117.154 -70 75.7323 -70C34.3109 -70 0.7323 -36.4214 0.7323 5C0.7323 46.4214 34.3109 80 75.7323 80Z" fill="#E0F01F"/>
<path d="M119.262 38.9883V39.35L66.62 39.3688V38.9883C74.2113 34.7016 79.4511 30.3344 84.1659 25.7719H105.782L119.262 38.9883ZM106.219 -29.5681L92.8753 -42.6562H92.4878C92.4878 -42.6562 92.7128 -18.2647 70.3096 3.91899C48.3874 25.6305 22.6073 25.6797 22.6073 25.6797V26.0602L36.2007 39.375C36.2007 39.375 61.6056 39.6258 84.0471 17.6141C106.407 -4.32398 106.219 -29.5681 106.219 -29.5681Z" fill="black"/>
</g>
<defs>
<clipPath id="clip0_35_186">
<rect width="150" height="150" fill="white" transform="translate(0.7323 -70)"/>
</clipPath>
</defs>
</svg>
