<svg width="133" height="150" viewBox="0 0 133 150" fill="none" xmlns="http://www.w3.org/2000/svg">
<g clip-path="url(#clip0_35_47)">
<path d="M115.511 29.4555C115.408 28.7055 114.751 28.2904 114.208 28.2447C113.666 28.1995 102.196 27.3493 102.196 27.3493C102.196 27.3493 94.2303 19.4409 93.3559 18.5656C92.4811 17.6908 90.7726 17.9569 90.1094 18.1521C90.0118 18.1808 88.369 18.6878 85.6515 19.5288C82.9905 11.8716 78.2943 4.83494 70.0325 4.83494C69.8044 4.83494 69.5696 4.84418 69.3349 4.85754C66.9852 1.75018 64.0746 0.400177 61.5606 0.400177C42.3148 0.400177 33.1202 24.4593 30.2373 36.6853C22.7588 39.0026 17.4462 40.65 16.7676 40.8632C12.5933 42.1726 12.4612 42.3041 11.9131 46.2375C11.5006 49.2154 0.578369 133.682 0.578369 133.682L85.6869 149.629L131.802 139.653C131.802 139.653 115.613 30.2055 115.512 29.4555H115.511ZM80.9476 20.9836L73.746 23.2125C73.7486 22.705 73.7512 22.2057 73.7512 21.6596C73.7512 16.9007 73.0905 13.069 72.0308 10.0315C76.2878 10.5658 79.1229 15.4094 80.9476 20.9836ZM66.75 10.9752C67.9335 13.9408 68.703 18.1968 68.703 23.9399C68.703 24.2337 68.7005 24.5024 68.6979 24.7741C64.0145 26.2248 58.9253 27.7998 53.8248 29.38C56.6886 18.3272 62.0568 12.9889 66.75 10.9752ZM61.032 5.56233C61.8626 5.56233 62.6994 5.84435 63.5003 6.39555C57.3323 9.29795 50.721 16.6079 47.9291 31.2057L36.1725 34.8467C39.4428 23.7123 47.2078 5.56233 61.0315 5.56233H61.032Z" fill="#95BF46"/>
<path d="M114.208 28.2447C113.666 28.1995 102.196 27.3493 102.196 27.3493C102.196 27.3493 94.2303 19.4409 93.3559 18.5656C93.0287 18.2399 92.5874 18.0729 92.1261 18.001L85.691 149.628L131.802 139.653C131.802 139.653 115.613 30.2055 115.511 29.4555C115.408 28.7055 114.751 28.2904 114.208 28.2447Z" fill="#5E8E3E"/>
<path d="M70.0324 53.7252L64.3463 70.6392C64.3463 70.6392 59.3644 67.9803 53.2576 67.9803C44.3048 67.9803 43.8543 73.5986 43.8543 75.0144C43.8543 82.7394 63.9913 85.6993 63.9913 103.794C63.9913 118.03 54.962 127.197 42.7874 127.197C28.1778 127.197 20.7065 118.104 20.7065 118.104L24.6184 105.18C24.6184 105.18 32.2982 111.773 38.7785 111.773C43.0129 111.773 44.7353 108.439 44.7353 106.003C44.7353 95.9265 28.2148 95.4771 28.2148 78.919C28.2148 64.9829 38.2175 51.4967 58.4089 51.4967C66.1889 51.4967 70.0324 53.7252 70.0324 53.7252Z" fill="white"/>
</g>
<defs>
<clipPath id="clip0_35_47">
<rect width="131.52" height="150" fill="white" transform="translate(0.552246)"/>
</clipPath>
</defs>
</svg>
