<svg width="151" height="150" viewBox="0 0 151 150" fill="none" xmlns="http://www.w3.org/2000/svg">
<g clip-path="url(#clip0_35_39)">
<path d="M75.6652 0C117.123 0 150.59 33.5 150.59 75C150.59 116.5 117.123 150 75.6652 150C34.2066 150 0.740234 116.5 0.740234 75C0.740234 33.5 34.2066 0 75.6652 0ZM75.6652 20C45.1956 20 20.7202 44.5 20.7202 75C20.7202 105.5 45.1956 130 75.6652 130C106.134 130 130.61 105.5 130.61 75C130.61 44.5 106.134 20 75.6652 20ZM57.1834 78C65.6752 78 72.668 84.9998 72.668 93.5002C72.668 102 65.6752 109 57.1834 109C48.692 109 41.6991 102 41.6991 93.5002C41.6991 84.9998 48.692 78 57.1834 78ZM94.1466 78C102.638 78 109.631 84.9998 109.631 93.5002C109.631 102 102.638 109 94.1466 109C85.6548 109 78.662 102 78.662 93.5002C78.662 84.9998 85.6548 78 94.1466 78ZM94.1466 41C102.638 41 109.631 48 109.631 56.4998C109.631 65.0002 102.638 72 94.1466 72C85.6548 72 78.662 65.0002 78.662 56.4998C78.662 48 85.6548 41 94.1466 41ZM57.1834 41C65.6752 41 72.668 48 72.668 56.4998C72.668 65.0002 65.6752 72 57.1834 72C48.692 72 41.6991 65.0002 41.6991 56.4998C41.6991 48 48.692 41 57.1834 41Z" fill="#F22F46"/>
</g>
<defs>
<clipPath id="clip0_35_39">
<rect width="150" height="150" fill="white" transform="translate(0.740234)"/>
</clipPath>
</defs>
</svg>
